<svg xmlns="http://www.w3.org/2000/svg" width="1em" height="1em" viewBox="0 0 128 128"><defs><path id="notoV1Handshake0" d="M15.6 27.43c8.02-2.46 15.01 5.19 20.79 3.37c8.45-2.67 13.35-3.21 22.39-.41c9.11 2.83 19.74 10.65 27.47 16.06c6.81 4.77 15.65 12.53 21.53 18.51c3.81 3.88 3.71 6.55 2.96 8.55c-.97 2.58-3.76 3.96-7.19 3.83c-.36-.01-.64.32-.51.66c1.21 3.37.09 6.26-1.54 7.7c-2.42 2.13-5.19 2.58-8.35 1.45a.457.457 0 0 0-.59.55c.68 2.61-.13 5.17-2.28 6.75c-2.3 1.68-4.46 1.62-7.94.35c-.36-.13-.71.13-.73.51c-.08 1.6-1.34 2.83-2.08 3.55c-3.25 3.18-8.87 1.01-13.57-1.24c-9.23-4.41-21.6-13.7-30.47-18.78C25.08 72.88.42 59.73 1.42 48.74c.45-4.98 6.76-18.54 14.18-21.31"/></defs><use fill="#fac036" href="#notoV1Handshake0"/><clipPath id="notoV1Handshake1"><use href="#notoV1Handshake0"/></clipPath><path fill="#e48c15" d="M103.12 60.29c1.62 1.83 2.19 5.74.38 8.4c-1.96 2.88-4.88 2.69-5.67 3.48c-.8.8.04 3.65-2.83 6.21c-3.14 2.79-6.42 1.4-7.5 2.25c-.88.69.16 3.49-3.66 6.18c-3.94 2.78-7.41 1.58-8.03 2.13c-.94.84.28 2.17-3.44 5.44c-3.73 3.27-11.94-1.64-14.12-2.44c-.61-.22-2.31.75-2.15 1.38c.08.31 16.09 10.4 21.73 10.52c5.92.12 12.01-.47 17.31-3.13c2.02-1.01 3.88-2.3 5.67-3.67c4.5-3.45 8.67-7.59 10.89-12.81c1.61-3.77 2.11-7.92 2.33-12.02c.18-3.31-.03-7.11-2.61-9.19c-2.07-1.67-5.84-2.85-8.3-2.73" clip-path="url(#notoV1Handshake1)"/><defs><path id="notoV1Handshake2" d="M106.08 66.74c4.54-3.03 15.53-9.08 18.35-16.65c1.9-5.1-3.37-9.33-6.16-12.69c-3.61-4.33-10.23-7.67-15.5-6.4c-3.15.76-9.94 3.2-14.24 3.07c-5.24-.17-8.02-.36-11.47-.89c-2.7-.41-6.65.09-11.6 1.65c-4.99 1.57-9.01 3.38-14.03 6.64c-1.98 1.29-4.37 3.46-5.67 5.6c-1.97 3.24.57 8.34 5.47 8.99c6.32.84 12.97-6.02 20.1-8.99c2.11-.88 4.36-2.12 7.17-1.88c3.14.28 16.56 10.98 27.58 21.55"/></defs><use fill="#e48c15" href="#notoV1Handshake2"/><use fill="none" stroke="#e48c15" stroke-miterlimit="10" stroke-width="4" href="#notoV1Handshake2"/><path fill="#e48c15" d="M67.19 85.74s-.04 4.74-.68 6.34c-.64 1.6-1.08 3.55-2.15 4.75l1.71.85c2.78-3.87 3.4-5.18 3.4-7.78c-.01-2.85-2.28-4.16-2.28-4.16M33.04 68.82s1.63 2.65.99 4.25c-.64 1.6-.98 3.23-2.05 4.43c0 0 .39-.42.9-.13c.49.28.18.86.18.86l1.54-1.74c.91-1.15.97-2.96.55-4.55c-.54-2.06-2.11-3.12-2.11-3.12m11.78 4.27s.37 4.84-.26 6.44c-.64 1.6-.98 3.23-2.05 4.43c0 0 .62-.32 1.12-.04c.49.28.22 1.06.22 1.06l2.22-2.6c.91-1.15 1.27-3.28 1.1-5.17c-.24-2.66-2.35-4.12-2.35-4.12m13.49 4.8s-2.15 7.24-2.79 8.84c-.64 1.6-.94 3.27-2.01 4.47c0 0 .6-.38 1.1-.1c.49.28.21 1.08.21 1.08l2.7-3.14c.91-1.15 2.83-4.14 2.82-7.16c-.02-2.85-2.03-3.99-2.03-3.99"/><defs><path id="notoV1Handshake3" d="M67.41 95.35c-3.53 3.68-6.99 6.11-10.19 3.03c-3.15-3.02-.92-6.62 2.61-10.31s7.67-6.11 10.52-3.37c2.9 2.79.59 6.97-2.94 10.65"/></defs><use fill="#e48c15" href="#notoV1Handshake3"/><use fill="none" stroke="#e48c15" stroke-miterlimit="10" stroke-width="2" href="#notoV1Handshake3"/><defs><path id="notoV1Handshake4" d="M56.73 89.2c-5.13 5.87-8.66 7.72-12.2 4.33c-3.48-3.34-.42-7.59 3.82-12.37c5.38-6.05 9.46-7.77 12.61-4.76c3.21 3.09 1.23 6.55-4.23 12.8"/></defs><use fill="#e48c15" href="#notoV1Handshake4"/><use fill="none" stroke="#e48c15" stroke-miterlimit="10" stroke-width="2" href="#notoV1Handshake4"/><defs><path id="notoV1Handshake5" d="M44.2 83.32c-3.88 4.02-7.62 6.71-10.99 3.47c-3.31-3.17-.69-6.94 3.02-11.12c4.06-4.59 8.35-6.72 11.35-3.85c3.05 2.93 1.34 6.61-3.38 11.5"/></defs><use fill="#e48c15" href="#notoV1Handshake5"/><use fill="none" stroke="#e48c15" stroke-miterlimit="10" stroke-width="2" href="#notoV1Handshake5"/><defs><path id="notoV1Handshake6" d="M33.25 77.06c-3.1 3.23-6.21 5.27-9.49 2.12c-3.22-3.09-1.37-6.34 1.73-9.57s6.86-5.22 9.78-2.42c2.97 2.85 1.08 6.64-2.02 9.87"/></defs><use fill="#e48c15" href="#notoV1Handshake6"/><use fill="none" stroke="#e48c15" stroke-miterlimit="10" stroke-width="2" href="#notoV1Handshake6"/><defs><path id="notoV1Handshake7" d="M107.21 64.41c4.69-3.13 16.07-9.39 18.98-17.23c1.96-5.27-3.48-9.65-6.37-13.13c-3.73-4.48-10.58-7.94-16.04-6.63c-3.26.78-10.28 3.31-14.74 3.17c-5.43-.17-8.29-.37-11.86-.92c-2.8-.43-6.88.09-12 1.7c-5.16 1.62-9.32 3.49-14.51 6.87c-2.04 1.33-4.52 3.58-5.86 5.8c-2.03 3.36.59 8.63 5.66 9.3c6.54.87 13.42-6.23 20.79-9.3c2.18-.91 4.51-2.19 7.41-1.94c3.26.31 17.14 11.37 28.54 22.31"/></defs><use fill="#fac036" href="#notoV1Handshake7"/><defs><path id="notoV1Handshake8" d="M64.65 96.52c-3.48 3.62-6.87 6.01-10.02 2.98c-3.09-2.97-.91-6.51 2.57-10.14c3.48-3.62 7.54-6.01 10.34-3.32c2.86 2.75.59 6.86-2.89 10.48"/></defs><use fill="#fac036" href="#notoV1Handshake8"/><defs><path id="notoV1Handshake9" d="M54.15 90.47c-5.05 5.77-8.52 7.6-12 4.26c-3.42-3.28-.42-7.47 3.76-12.16c5.29-5.95 9.31-7.65 12.4-4.68c3.15 3.03 1.21 6.44-4.16 12.58"/></defs><use fill="#fac036" href="#notoV1Handshake9"/><defs><path id="notoV1Handshakea" d="M41.82 84.68c-3.82 3.95-7.5 6.59-10.81 3.42c-3.25-3.12-.68-6.83 2.97-10.94c4-4.51 8.21-6.61 11.16-3.78c3.01 2.88 1.33 6.5-3.32 11.3"/></defs><use fill="#fac036" href="#notoV1Handshakea"/><defs><path id="notoV1Handshakeb" d="M31.06 78.53c-3.05 3.18-6.11 5.18-9.34 2.09c-3.17-3.04-1.35-6.24 1.7-9.41c3.05-3.18 6.75-5.13 9.62-2.38c2.93 2.8 1.07 6.52-1.98 9.7"/></defs><use fill="#fac036" href="#notoV1Handshakeb"/></svg>